<svg width="13" height="13" viewBox="0 0 13 13" fill="none" xmlns="http://www.w3.org/2000/svg">
<path d="M12.2439 6.41348C12.2439 9.63354 9.63351 12.2439 6.41345 12.2439M12.2439 6.41348C12.2439 3.19342 9.63351 0.583038 6.41345 0.583038M12.2439 6.41348H0.583008M6.41345 12.2439C3.19338 12.2439 0.583008 9.63354 0.583008 6.41348M6.41345 12.2439C4.91633 10.6719 4.08127 8.5843 4.08127 6.41348C4.08127 4.24265 4.91633 2.15501 6.41345 0.583038M6.41345 12.2439C7.91057 10.6719 8.74562 8.5843 8.74562 6.41348C8.74562 4.24265 7.91057 2.15501 6.41345 0.583038M0.583008 6.41348C0.583008 3.19342 3.19338 0.583038 6.41345 0.583038" stroke="#737373" stroke-width="1.16609" stroke-linecap="round" stroke-linejoin="round"/>
</svg>
